<svg version="1.1" viewBox="0.0 0.0 300.0 300.0" fill="none" stroke="none" stroke-linecap="square" stroke-miterlimit="10" xmlns:xlink="http://www.w3.org/1999/xlink" xmlns="http://www.w3.org/2000/svg"><clipPath id="p.0"><path d="m0 0l300.0 0l0 300.0l-300.0 0l0 -300.0z" clip-rule="nonzero"/></clipPath><g clip-path="url(#p.0)"><path fill="#000000" fill-opacity="0.0" d="m0 0l300.0 0l0 300.0l-300.0 0z" fill-rule="evenodd"/><path fill="#000000" fill-opacity="0.0" d="m0 87.76378l300.0 0l0 124.47244l-300.0 0z" fill-rule="evenodd"/><path fill="#000000" d="m40.46875 135.16377l0 -3.421875l3.03125 -0.578125l0 -20.421867l-3.03125 -0.578125l0 -3.4375l3.03125 0l8.4375 0l7.75 19.828125l0.125 0l7.5 -19.828125l11.484375 0l0 3.4375l-3.046875 0.578125l0 20.421867l3.046875 0.578125l0 3.421875l-11.78125 0l0 -3.421875l3.1875 -0.578125l0 -5.4531174l0.09375 -12.828125l-0.125 -0.03125l-8.484375 21.921867l-4.328125 0l-8.6875 -21.734367l-0.109375 0.015625l0.328125 12.0625l0 6.0468674l3.359375 0.578125l0 3.421875l-11.78125 0zm53.382812 0.40625q-2.875 0 -5.234375 -1.0625q-2.359375 -1.078125 -4.078125 -3.015625q-1.703125 -1.953125 -2.625 -4.5781174q-0.921875 -2.625 -0.921875 -5.75l0 -0.4375q0 -3.109375 0.921875 -5.734375q0.921875 -2.625 2.609375 -4.578125q1.703125 -1.953125 4.0625 -3.015625q2.375 -1.078125 5.25 -1.078125q2.890625 0 5.265625 1.078125q2.390625 1.0625 4.109375 3.015625q1.71875 1.953125 2.640625 4.578125q0.921875 2.625 0.921875 5.734375l0 0.4375q0 3.125 -0.921875 5.75q-0.921875 2.6249924 -2.640625 4.5781174q-1.71875 1.9375 -4.09375 3.015625q-2.375 1.0625 -5.265625 1.0625zm0 -4.4375q2.421875 0 4.015625 -1.25q1.609375 -1.25 2.421875 -3.4843674q0.8125 -2.25 0.8125 -5.234375l0 -0.46875q0 -2.953125 -0.828125 -5.1875q-0.8125 -2.234375 -2.4375 -3.484375q-1.609375 -1.25 -4.0 -1.25q-2.390625 0 -3.96875 1.234375q-1.578125 1.234375 -2.375 3.46875q-0.796875 2.21875 -0.796875 5.21875l0 0.46875q0 2.984375 0.796875 5.234375q0.796875 2.2343674 2.375 3.4843674q1.59375 1.25 3.984375 1.25zm15.2109375 4.03125l0 -3.421875l3.03125 -0.578125l0 -20.421867l-3.03125 -0.578125l0 -3.4375l11.78125 0l0 3.4375l-3.046875 0.578125l0 8.203125l11.59375 0l0 -8.203125l-3.046875 -0.578125l0 -3.4375l3.046875 0l5.6875 0l3.046875 0l0 3.4375l-3.046875 0.578125l0 20.421867l3.046875 0.578125l0 3.421875l-11.78125 0l0 -3.421875l3.046875 -0.578125l0 -7.8124924l-11.59375 0l0 7.8124924l3.046875 0.578125l0 3.421875l-11.78125 0zm29.078125 0l0 -3.421875l2.03125 -0.296875l9.046875 -24.718742l5.84375 0l8.984375 24.718742l2.03125 0.296875l0 3.421875l-9.6875 0l0 -3.421875l1.96875 -0.34375l-1.25 -3.9062424l-10.0 0l-1.25 3.9062424l1.96875 0.34375l0 3.421875l-9.6875 0zm10.3125 -11.874992l7.3125 0l-3.328125 -9.75l-0.265625 -0.859375l-0.125 0l-0.28125 0.921875l-3.3125 9.6875zm19.515625 11.874992l0 -3.421875l3.03125 -0.578125l0 -20.421867l-3.03125 -0.578125l0 -3.4375l3.03125 0l8.4375 0l7.75 19.828125l0.125 0l7.5 -19.828125l11.484375 0l0 3.4375l-3.046875 0.578125l0 20.421867l3.046875 0.578125l0 3.421875l-11.78125 0l0 -3.421875l3.1875 -0.578125l0 -5.4531174l0.09375 -12.828125l-0.125 -0.03125l-8.484375 21.921867l-4.328125 0l-8.6875 -21.734367l-0.109375 0.015625l0.328125 12.0625l0 6.0468674l3.359375 0.578125l0 3.421875l-11.78125 0zm40.351562 0l0 -3.421875l3.03125 -0.578125l0 -20.421867l-3.03125 -0.578125l0 -3.4375l22.078125 0l0 7.671875l-4.375 0l-0.265625 -3.28125l-8.703125 0l0 7.15625l9.625 0l0 4.390625l-9.625 0l0 8.124992l9.171875 0l0.265625 -3.4062424l4.328125 0l0 7.7812424l-22.5 0zm25.546875 0l0 -3.421875l3.0625 -0.640625l0 -20.281242l-3.0625 -0.65625l0 -3.4375l3.0625 0l9.421875 0q3.8125 0 6.71875 1.796875q2.90625 1.78125 4.53125 4.9375q1.640625 3.140625 1.640625 7.234375l0 0.515625q0 4.046875 -1.609375 7.2031174q-1.609375 3.15625 -4.5 4.953125q-2.890625 1.796875 -6.703125 1.796875l-12.5625 0zm8.765625 -4.359375l3.5 0q2.359375 0 4.0 -1.234375q1.640625 -1.25 2.515625 -3.4062424q0.875 -2.171875 0.875 -4.953125l0 -0.546875q0 -2.8125 -0.875 -4.96875q-0.875 -2.15625 -2.515625 -3.375q-1.640625 -1.21875 -4.0 -1.21875l-3.5 0l0 19.703117z" fill-rule="nonzero"/><path fill="#000000" d="m39.222656 190.84378l0 -4.109375l3.640625 -0.703125l0 -24.484375l-3.640625 -0.703125l0 -4.125l26.484375 0l0 9.203125l-5.25 0l-0.296875 -3.9375l-10.453125 0l0 8.578125l11.546875 0l0 5.28125l-11.546875 0l0 9.75l11.015625 0l0.296875 -4.078125l5.203125 0l0 9.328125l-27.0 0zm30.65625 0l0 -4.109375l3.640625 -0.703125l0 -24.484375l-3.640625 -0.703125l0 -4.125l3.640625 0l6.84375 0l4.125 0l0 4.125l-4.125 0.703125l0 24.046875l9.625 0l0.328125 -5.0l5.234375 0l0 10.25l-25.671875 0zm29.890625 -11.953125l0 -5.28125l13.21875 0l0 5.28125l-13.21875 0zm33.210938 12.453125q-5.09375 0 -8.6875 -2.109375q-3.578125 -2.125 -5.484375 -5.875q-1.90625 -3.75 -1.90625 -8.6875l0 -1.171875q0 -5.109375 1.890625 -9.0q1.90625 -3.890625 5.375 -6.078125q3.484375 -2.203125 8.25 -2.203125q3.671875 0 6.90625 1.015625q3.234375 1.0 5.625 3.015625l0 7.578125l-5.0625 0l-0.953125 -4.578125q-0.921875 -0.796875 -2.46875 -1.265625q-1.546875 -0.484375 -3.53125 -0.484375q-2.859375 0 -4.9375 1.5q-2.078125 1.5 -3.1875 4.203125q-1.09375 2.6875 -1.09375 6.25l0 1.21875q0 3.46875 1.09375 6.03125q1.09375 2.5625 3.203125 3.96875q2.109375 1.40625 5.171875 1.40625q1.8125 0 3.3125 -0.328125q1.515625 -0.34375 2.5 -0.84375l0 -5.78125l-4.875 -0.375l0 -4.8125l11.75 0l0 13.8125q-2.28125 1.609375 -5.484375 2.609375q-3.1875 0.984375 -7.40625 0.984375zm16.304688 -0.5l0 -4.109375l3.640625 -0.703125l0 -24.484375l-3.640625 -0.703125l0 -4.125l26.484375 0l0 9.203125l-5.25 0l-0.296875 -3.9375l-10.453125 0l0 8.578125l11.546875 0l0 5.28125l-11.546875 0l0 9.75l11.015625 0l0.296875 -4.078125l5.203125 0l0 9.328125l-27.0 0zm30.65625 0l0 -4.109375l3.640625 -0.703125l0 -24.484375l-3.640625 -0.703125l0 -4.125l14.109375 0l0 4.125l-3.625 0.703125l0 24.484375l3.625 0.703125l0 4.109375l-14.109375 0zm30.65625 0.5q-3.765625 0 -6.859375 -0.84375q-3.09375 -0.859375 -6.09375 -2.9375l0 -8.25l5.296875 0l0.71875 4.84375q1.0625 0.890625 2.90625 1.453125q1.859375 0.546875 4.03125 0.546875q1.859375 0 3.125 -0.515625q1.28125 -0.515625 1.953125 -1.46875q0.671875 -0.953125 0.671875 -2.234375q0 -1.21875 -0.609375 -2.171875q-0.59375 -0.953125 -1.96875 -1.734375q-1.359375 -0.78125 -3.703125 -1.515625q-4.0625 -1.1875 -6.71875 -2.609375q-2.65625 -1.421875 -3.984375 -3.390625q-1.328125 -1.984375 -1.328125 -4.78125q0 -2.765625 1.53125 -4.875q1.546875 -2.125 4.265625 -3.34375q2.71875 -1.21875 6.28125 -1.265625q3.9375 -0.046875 6.96875 0.9375q3.03125 0.984375 5.234375 2.734375l0 7.6875l-5.125 0l-0.890625 -4.6875q-0.890625 -0.5625 -2.40625 -0.984375q-1.515625 -0.421875 -3.4375 -0.421875q-1.640625 0 -2.890625 0.5q-1.25 0.484375 -1.984375 1.421875q-0.71875 0.9375 -0.71875 2.28125q0 1.140625 0.625 2.0q0.640625 0.859375 2.125 1.625q1.484375 0.75 4.109375 1.625q5.65625 1.5625 8.5625 4.140625q2.921875 2.578125 2.921875 6.78125q0 2.90625 -1.578125 5.03125q-1.5625 2.109375 -4.40625 3.265625q-2.828125 1.15625 -6.625 1.15625zm15.3046875 -0.5l0 -4.109375l3.640625 -0.703125l0 -24.484375l-3.640625 -0.703125l0 -4.125l14.140625 0l0 4.125l-3.65625 0.703125l0 9.84375l13.921875 0l0 -9.84375l-3.65625 -0.703125l0 -4.125l3.65625 0l6.8125 0l3.65625 0l0 4.125l-3.65625 0.703125l0 24.484375l3.65625 0.703125l0 4.109375l-14.125 0l0 -4.109375l3.65625 -0.703125l0 -9.375l-13.921875 0l0 9.375l3.65625 0.703125l0 4.109375l-14.140625 0z" fill-rule="nonzero"/></g></svg>